<svg width="148" height="33" xmlns="http://www.w3.org/2000/svg"><g fill="#fff" fill-rule="evenodd"><path d="M6.968 11.858c0 1.062.81 1.901 1.836 1.901 1.027 0 1.837-.895 1.837-1.901V7.27c0-1.063-.81-1.902-1.837-1.902s-1.836.84-1.836 1.902v4.587z"/><path d="M8.804 18.681c4.862 0 8.805-4.083 8.805-9.117 0-5.033-3.943-9.117-8.805-9.117C3.944.447 0 4.531 0 9.564c0 5.034 3.943 9.117 8.804 9.117m0-15.213c3.241 0 5.888 2.74 5.888 6.096s-2.647 6.097-5.888 6.097c-3.24 0-5.887-2.74-5.887-6.097 0-3.356 2.647-6.096 5.887-6.096" fill-rule="nonzero"/><path d="M76.269 10.068a2.8 2.8 0 01.972-1.734c.54-.448 1.134-.727 1.836-.727.324 0 .649.056.919.168.27.111.486.28.702.503.162.224.324.503.378.783a2.8 2.8 0 010 .95 2.818 2.818 0 01-.324.952c-.162.28-.378.559-.648.783-.27.223-.54.391-.865.56a2.964 2.964 0 01-.972.167c-.324 0-.648-.056-.918-.168-.27-.112-.486-.336-.648-.56-.162-.223-.324-.503-.378-.782-.108-.28-.108-.56-.054-.895M19.283 27.91l3.133-18.29h5.942l2.268 12.25L37.27 9.62h5.618l-3.133 18.29h-4.321l2.106-12.36-6.266 12.36h-3.348l-2.161-12.36-2.107 12.36zm23.82-5.593l1.405-8.166h4.213l-1.188 7.047c-.162 1.007-.162 1.79.108 2.405.216.616.756.951 1.674.951.865 0 1.567-.335 2.107-.95.54-.616.864-1.455 1.08-2.518l1.189-6.88h4.213l-2.323 13.76h-4.213l.324-1.958a4.808 4.808 0 01-1.945 1.678c-.81.392-1.728.616-2.808.616-.919 0-1.675-.168-2.215-.448-.54-.28-.972-.67-1.242-1.118-.324-.56-.486-1.12-.54-1.846-.108-.727 0-1.566.162-2.573m14.8 5.593l3.132-18.29h4.214l-3.133 18.29zm8.858-13.76l.81-4.586h4.213l-.81 4.587H74l-.54 3.244h-3.025l-.81 4.866c-.108.503-.108.895-.054 1.23.054.28.108.56.27.728.162.167.324.28.54.335.216.056.486.056.81.056h.702c.27 0 .54-.056.757-.056l-.595 3.356c-.324.056-.702.112-1.188.168-.486.056-1.026.056-1.674.056-.486 0-1.027-.056-1.567-.112s-1.026-.28-1.404-.56c-.432-.335-.702-.782-.918-1.454-.216-.67-.216-1.566 0-2.684l.972-5.873.486-3.3zm6.86 13.76l2.323-13.76h4.213L77.78 27.91z"/><path d="M94.85 32.497l3.132-18.346h4.214l-.324 1.957c.432-.615 1.08-1.174 1.89-1.622.81-.447 1.729-.67 2.809-.67.864 0 1.674.167 2.376.559.703.391 1.297.894 1.729 1.51.486.615.756 1.398.972 2.293.162.895.162 1.846 0 2.853-.162 1.006-.486 2.013-.972 2.852-.486.895-1.026 1.622-1.729 2.293-.648.616-1.458 1.175-2.268 1.51-.81.392-1.675.56-2.539.56-1.026 0-1.89-.224-2.539-.671-.648-.448-1.134-1.007-1.35-1.622l-1.134 6.544H94.85zm6.157-11.466c-.108.503-.108.95 0 1.342.108.447.216.783.486 1.119.216.335.487.559.865.727.378.167.756.28 1.242.28s.918-.113 1.35-.28c.432-.168.81-.448 1.135-.727.324-.28.594-.672.81-1.12.216-.447.378-.894.486-1.341.108-.448.054-.895 0-1.343-.108-.447-.216-.783-.486-1.119a1.87 1.87 0 00-.864-.727 2.915 2.915 0 00-1.243-.28c-.486 0-.918.113-1.35.28-.432.168-.81.448-1.134.727a6.01 6.01 0 00-.865 1.12c-.216.447-.378.894-.432 1.342zm11.992 0a8.587 8.587 0 01.972-2.797 8.27 8.27 0 011.836-2.293c.757-.672 1.62-1.175 2.593-1.566a8.533 8.533 0 013.187-.616c1.188 0 2.16.168 3.025.616.864.391 1.512.894 2.052 1.566.54.67.864 1.398 1.08 2.293.163.895.163 1.79 0 2.797a8.587 8.587 0 01-.972 2.796 8.27 8.27 0 01-1.836 2.293c-.756.672-1.62 1.175-2.593 1.566-.972.392-2.052.56-3.187.56-1.134 0-2.16-.224-2.97-.56-.81-.391-1.513-.894-2.053-1.566-.54-.67-.864-1.398-1.08-2.293-.217-.839-.217-1.79-.054-2.796m4.213 0c-.108.503-.108.95 0 1.398.054.447.216.783.432 1.118.216.336.486.56.864.784.378.167.756.28 1.242.28s.919-.113 1.35-.28c.433-.168.81-.448 1.135-.784a6.01 6.01 0 00.864-1.118c.216-.392.378-.895.486-1.398.108-.448.108-.951 0-1.343-.108-.447-.216-.783-.432-1.119-.216-.335-.486-.559-.864-.783a3.168 3.168 0 00-1.296-.28c-.486 0-.919.113-1.35.28-.433.168-.81.448-1.135.783-.324.336-.594.672-.81 1.12-.27.39-.432.894-.486 1.342" fill-rule="nonzero"/><path d="M140.384 14.15l.756-4.586h4.213l-.756 4.587h3.025l-.54 3.244h-3.025l-.81 4.866c-.108.503-.108.895-.054 1.23.054.28.108.56.27.728.162.167.324.28.54.335.216.056.432.056.756.056h.702c.27 0 .54-.056.757-.056l-.595 3.356c-.324.056-.702.112-1.188.168-.486.056-1.026.056-1.674.056-.487 0-1.027-.056-1.567-.112a2.891 2.891 0 01-1.404-.56c-.432-.335-.702-.782-.918-1.454-.217-.67-.217-1.566 0-2.684l.972-5.873.54-3.3zM95.66 12.64c-.162-.726-.432-1.342-.918-1.901-.433-.56-1.08-1.007-1.783-1.342-.756-.336-1.674-.504-2.7-.504-.81 0-1.675.112-2.485.336-.81.224-1.567.56-2.215 1.007a6.454 6.454 0 00-1.728 1.733c-.486.672-.81 1.51-.973 2.462-.162.894-.108 1.733.108 2.349a4.043 4.043 0 001.08 1.622 6.216 6.216 0 001.73 1.118c.647.28 1.35.616 2.106.895.378.168.702.28.972.448.324.168.54.28.756.503.162.168.324.392.432.615.108.224.108.504.054.84-.108.559-.378 1.006-.81 1.398-.432.335-.972.503-1.62.503-.757 0-1.297-.224-1.729-.727-.378-.503-.54-1.23-.378-2.126h-4.483c-.162 1.063-.162 2.014.054 2.853.216.839.594 1.566 1.08 2.125a5.207 5.207 0 001.945 1.287c.81.28 1.674.447 2.7.447.973 0 1.891-.112 2.755-.391.864-.28 1.675-.671 2.323-1.175.702-.503 1.242-1.174 1.728-1.901.486-.728.757-1.567.919-2.517.162-.951.108-1.79-.162-2.461-.27-.672-.649-1.23-1.189-1.678a8.754 8.754 0 00-1.836-1.175c-.702-.28-1.405-.615-2.107-.895-.702-.28-1.296-.615-1.62-.95-.324-.336-.432-.728-.378-1.231.108-.504.324-.895.756-1.175s.918-.447 1.404-.447c.648 0 1.134.223 1.35.615.27.392.325 1.007.217 1.734h4.537a5.567 5.567 0 00.108-2.293m43.158 1.286c-.973 0-1.891.224-2.701.727s-1.405 1.063-1.837 1.734l.378-2.237h-4.213l-2.322 13.76h4.213l.918-5.37c.27-1.678.864-2.909 1.674-3.58.81-.727 1.837-1.063 3.025-1.063.216 0 .378 0 .486.056l.703-4.027h-.324"/></g></svg>