<svg xmlns="http://www.w3.org/2000/svg" xmlns:xlink="http://www.w3.org/1999/xlink" width="60" zoomAndPan="magnify" viewBox="0 0 375 374.999991" height="60" preserveAspectRatio="xMidYMid meet" version="1.0"><defs><g/><clipPath id="08cacc62ef"><path d="M 79.398438 177 L 249 177 L 249 283 L 79.398438 283 Z M 79.398438 177 " clip-rule="nonzero"/></clipPath><clipPath id="11c6d66f01"><path d="M 183 176 L 295.316406 176 L 295.316406 292.972656 L 183 292.972656 Z M 183 176 " clip-rule="nonzero"/></clipPath><clipPath id="3e8c44fd68"><path d="M 123 77.054688 L 249 77.054688 L 249 254 L 123 254 Z M 123 77.054688 " clip-rule="nonzero"/></clipPath><clipPath id="8c09ae8a05"><path d="M 183.835938 160.84375 L 230.648438 160.84375 L 230.648438 235.324219 L 183.835938 235.324219 Z M 183.835938 160.84375 " clip-rule="nonzero"/></clipPath><clipPath id="13a84ea95e"><path d="M 146.074219 142 L 229 142 L 229 220 L 146.074219 220 Z M 146.074219 142 " clip-rule="nonzero"/></clipPath></defs><g clip-path="url(#08cacc62ef)"><path fill="#32b2ff" d="M 124.175781 186.964844 C 101.636719 197.089844 86.84375 212.417969 86.84375 230.003906 C 86.84375 248.886719 103.910156 265.164062 129.277344 275.199219 C 131.183594 275.960938 132.121094 278.117188 131.367188 280.03125 C 130.609375 281.945312 128.441406 282.875 126.535156 282.125 C 97.78125 270.746094 79.398438 251.410156 79.398438 230.003906 C 79.398438 208.226562 98.453125 188.585938 128.078125 177.292969 C 129.410156 176.785156 130.914062 177.082031 131.957031 178.058594 C 132.992188 179.035156 133.386719 180.515625 132.960938 181.878906 C 131.894531 185.289062 131.285156 188.535156 131.285156 191.585938 C 131.285156 195.726562 131.746094 199.753906 132.617188 203.632812 C 132.945312 205.078125 132.386719 206.574219 131.195312 207.445312 C 122.671875 213.730469 117.386719 221.472656 117.386719 230.003906 C 117.386719 238.195312 122.253906 245.65625 130.167969 251.792969 C 143.066406 261.789062 163.90625 268.164062 187.359375 268.164062 C 209.425781 268.164062 229.179688 262.511719 242.195312 253.511719 C 243.882812 252.34375 246.207031 252.765625 247.375 254.457031 C 248.542969 256.148438 248.121094 258.46875 246.429688 259.636719 C 232.402344 269.339844 211.152344 275.609375 187.359375 275.609375 C 162.007812 275.609375 139.550781 268.484375 125.613281 257.679688 C 115.644531 249.953125 109.941406 240.316406 109.941406 230.003906 C 109.941406 219.960938 115.367188 210.542969 124.875 202.917969 C 124.199219 199.242188 123.839844 195.457031 123.839844 191.585938 C 123.839844 190.089844 123.960938 188.542969 124.175781 186.964844 Z M 124.175781 186.964844 " fill-opacity="1" fill-rule="evenodd"/></g><g clip-path="url(#11c6d66f01)"><path fill="#32b2ff" d="M 247.324219 201.003906 C 253.660156 205.5625 258.476562 210.839844 261.417969 216.550781 C 262.355469 218.382812 261.632812 220.625 259.800781 221.5625 C 257.976562 222.507812 255.730469 221.785156 254.792969 219.953125 C 252.074219 214.667969 247.351562 209.894531 241.195312 205.832031 C 239.9375 204.996094 239.304688 203.492188 239.59375 202.019531 C 240.242188 198.644531 240.585938 195.152344 240.585938 191.585938 C 240.585938 188.28125 240.078125 184.609375 239.179688 180.679688 C 238.875 179.355469 239.320312 177.96875 240.339844 177.0625 C 241.351562 176.160156 242.78125 175.882812 244.0625 176.339844 C 275.140625 187.46875 295.316406 207.609375 295.316406 230.003906 C 295.316406 244.144531 287.425781 257.332031 273.753906 267.925781 C 254.253906 283.039062 222.828125 292.972656 187.359375 292.972656 C 185.304688 292.972656 183.636719 291.304688 183.636719 289.25 C 183.636719 287.195312 185.304688 285.527344 187.359375 285.527344 C 220.929688 285.527344 250.742188 276.347656 269.191406 262.042969 C 280.8125 253.035156 287.871094 242.03125 287.871094 230.003906 C 287.871094 211.667969 271.820312 195.785156 247.644531 185.703125 C 247.898438 187.761719 248.03125 189.726562 248.03125 191.585938 C 248.03125 194.789062 247.792969 197.9375 247.324219 201.003906 Z M 247.324219 201.003906 " fill-opacity="1" fill-rule="evenodd"/></g><g clip-path="url(#3e8c44fd68)"><path fill="#32b2ff" d="M 188.421875 78.007812 C 187.230469 76.925781 185.472656 76.746094 184.074219 77.550781 C 182.683594 78.355469 181.960938 79.964844 182.292969 81.542969 C 182.929688 84.558594 181.9375 88.222656 180.128906 92.421875 C 176.949219 99.804688 171.113281 108.503906 164.425781 117.808594 C 154.054688 132.261719 141.671875 148.121094 133.414062 162.824219 C 127.59375 173.203125 123.839844 183.085938 123.839844 191.585938 C 123.839844 225.859375 151.664062 253.683594 185.9375 253.683594 C 220.207031 253.683594 248.03125 225.859375 248.03125 191.585938 C 248.03125 177.84375 240.496094 158.492188 230.488281 139.566406 C 215.703125 111.613281 195.703125 84.542969 188.421875 78.007812 Z M 195.390625 233.363281 C 197.914062 232.960938 200.378906 232.21875 202.769531 231.308594 C 227.9375 221.785156 231.597656 192.679688 228.269531 169.59375 C 227.980469 167.558594 226.089844 166.144531 224.054688 166.4375 C 222.023438 166.726562 220.609375 168.617188 220.898438 170.648438 C 222.375 180.878906 222.492188 192.503906 219.402344 202.628906 C 216.492188 212.171875 210.65625 220.363281 200.132812 224.347656 C 198.222656 225.078125 196.242188 225.6875 194.214844 226.007812 C 192.191406 226.335938 190.804688 228.242188 191.125 230.273438 C 191.453125 232.296875 193.359375 233.683594 195.390625 233.363281 Z M 195.390625 233.363281 " fill-opacity="1" fill-rule="evenodd"/></g><g clip-path="url(#8c09ae8a05)"><path fill="#32b2ff" d="M 183.835938 160.84375 L 230.648438 160.84375 L 230.648438 235.269531 L 183.835938 235.269531 Z M 183.835938 160.84375 " fill-opacity="1" fill-rule="nonzero"/></g><g clip-path="url(#13a84ea95e)"><path fill="#ffffff" d="M 220.140625 151.71875 C 219.96875 151.464844 219.859375 151.183594 219.804688 150.882812 C 219.753906 150.578125 219.761719 150.28125 219.832031 149.980469 C 219.902344 149.683594 220.03125 149.410156 220.214844 149.164062 C 220.398438 148.917969 220.625 148.722656 220.890625 148.570312 C 222.023438 147.972656 223.039062 147.480469 223.433594 147.824219 C 225.308594 149.554688 226.648438 151.628906 227.457031 154.046875 C 227.621094 154.527344 226.835938 155.382812 225.921875 156.324219 C 225.722656 156.535156 225.488281 156.691406 225.21875 156.792969 C 224.945312 156.894531 224.664062 156.929688 224.378906 156.898438 C 224.089844 156.867188 223.820312 156.777344 223.578125 156.621094 C 223.332031 156.46875 223.132812 156.269531 222.980469 156.019531 Z M 152.535156 206.160156 C 152.453125 206.03125 152.359375 205.914062 152.25 205.808594 C 152.140625 205.703125 152.023438 205.613281 151.890625 205.539062 C 151.761719 205.460938 151.625 205.402344 151.480469 205.359375 C 151.335938 205.316406 151.1875 205.289062 151.035156 205.285156 C 150.882812 205.277344 150.734375 205.285156 150.585938 205.316406 C 150.4375 205.34375 150.292969 205.390625 150.15625 205.453125 C 150.019531 205.519531 149.894531 205.597656 149.773438 205.691406 C 149.65625 205.785156 149.550781 205.894531 149.460938 206.011719 C 148.703125 206.945312 148.101562 207.777344 148.28125 208.246094 C 149.226562 210.589844 150.640625 212.601562 152.527344 214.28125 C 152.824219 214.550781 153.695312 214.078125 154.667969 213.496094 C 154.917969 213.335938 155.125 213.132812 155.296875 212.886719 C 155.464844 212.644531 155.582031 212.375 155.644531 212.082031 C 155.703125 211.792969 155.707031 211.5 155.652344 211.207031 C 155.597656 210.914062 155.488281 210.644531 155.324219 210.394531 Z M 163.335938 200.078125 C 161.300781 197 159.269531 193.921875 157.234375 190.84375 C 153.8125 185.652344 153.8125 185.652344 149.113281 189.394531 C 146.371094 191.578125 146.140625 192.9375 148.085938 195.898438 C 152.035156 201.910156 156.105469 207.835938 159.941406 213.925781 C 164.535156 221.210938 164.863281 219.972656 170.730469 215.464844 C 172.167969 214.359375 172.214844 213.40625 171.171875 211.902344 C 168.496094 208.019531 165.9375 204.027344 163.335938 200.082031 Z M 226.882812 164.992188 C 222.976562 159.042969 218.960938 153.179688 215.152344 147.160156 C 210.644531 140.046875 210.296875 141.023438 204.3125 145.707031 C 204.167969 145.785156 204.03125 145.878906 203.910156 145.988281 C 203.785156 146.097656 203.675781 146.21875 203.582031 146.355469 C 203.488281 146.488281 203.410156 146.632812 203.351562 146.785156 C 203.289062 146.941406 203.25 147.097656 203.226562 147.261719 C 203.203125 147.425781 203.203125 147.589844 203.21875 147.753906 C 203.234375 147.917969 203.269531 148.078125 203.328125 148.234375 C 203.382812 148.386719 203.453125 148.535156 203.542969 148.671875 C 203.632812 148.8125 203.738281 148.9375 203.859375 149.050781 C 206.652344 153.105469 209.320312 157.261719 212.039062 161.378906 L 217.996094 170.40625 C 221.304688 175.417969 221.304688 175.417969 225.941406 171.746094 C 228.804688 169.488281 229 168.222656 226.882812 164.992188 Z M 174.960938 191.886719 C 171.722656 186.984375 168.484375 182.082031 165.25 177.183594 C 161.203125 171.054688 161.203125 171.054688 155.523438 175.488281 C 152.277344 178.023438 152.113281 179.019531 154.464844 182.582031 C 161.1875 192.785156 167.917969 202.984375 174.65625 213.179688 C 179.042969 219.816406 179.128906 219.824219 185.214844 214.816406 C 187.695312 212.777344 187.894531 211.515625 186.066406 208.730469 C 182.378906 203.105469 178.679688 197.492188 174.960938 191.886719 Z M 210.1875 162.410156 C 206.949219 157.503906 203.710938 152.605469 200.476562 147.707031 C 196.511719 141.714844 196.511719 141.714844 190.953125 146.050781 C 187.515625 148.734375 187.402344 149.492188 189.933594 153.328125 C 196.660156 163.527344 203.394531 173.722656 210.132812 183.910156 C 214.386719 190.347656 214.382812 190.347656 220.242188 185.703125 C 223.101562 183.433594 223.304688 182.308594 221.292969 179.246094 C 217.605469 173.621094 213.902344 168.007812 210.1875 162.410156 Z M 197.449219 169.507812 C 197.285156 169.238281 197.070312 169.015625 196.808594 168.835938 C 196.546875 168.65625 196.261719 168.539062 195.949219 168.484375 C 195.636719 168.429688 195.328125 168.4375 195.019531 168.515625 C 194.714844 168.589844 194.433594 168.726562 194.1875 168.917969 L 175.351562 183.515625 C 175.097656 183.722656 174.886719 183.972656 174.722656 184.257812 C 174.5625 184.546875 174.453125 184.851562 174.40625 185.175781 C 174.355469 185.503906 174.363281 185.828125 174.433594 186.148438 C 174.503906 186.472656 174.628906 186.769531 174.8125 187.046875 L 177.121094 190.546875 C 177.289062 190.816406 177.503906 191.042969 177.761719 191.21875 C 178.023438 191.398438 178.3125 191.515625 178.625 191.574219 C 178.933594 191.628906 179.246094 191.617188 179.550781 191.542969 C 179.859375 191.46875 180.136719 191.332031 180.386719 191.136719 L 199.222656 176.539062 C 199.476562 176.332031 199.683594 176.085938 199.847656 175.796875 C 200.011719 175.511719 200.117188 175.207031 200.167969 174.878906 C 200.21875 174.554688 200.207031 174.230469 200.136719 173.90625 C 200.070312 173.585938 199.941406 173.285156 199.761719 173.007812 Z M 197.449219 169.507812 " fill-opacity="1" fill-rule="nonzero"/></g><g fill="#ffffff" fill-opacity="1"><g transform="translate(76.016574, 103.605503)"><g><path d="M 8.765625 -6.890625 L 2.53125 -1.984375 L -15.90625 -25.453125 L -2.03125 -36.359375 L 1.953125 -31.265625 L -5.6875 -25.265625 L -2.15625 -20.78125 L 4.890625 -26.3125 L 8.890625 -21.234375 L 1.84375 -15.703125 Z M 8.765625 -6.890625 "/></g></g></g><g fill="#ffffff" fill-opacity="1"><g transform="translate(107.095385, 81.72692)"><g><path d="M 9.640625 -4.828125 L 2.5 -1.25 L -7.875 -21.921875 L -0.734375 -25.5 Z M -10.640625 -26.96875 C -11.171875 -28.03125 -11.269531 -28.972656 -10.9375 -29.796875 C -10.601562 -30.628906 -9.773438 -31.378906 -8.453125 -32.046875 C -7.128906 -32.710938 -6.03125 -32.929688 -5.15625 -32.703125 C -4.28125 -32.472656 -3.578125 -31.832031 -3.046875 -30.78125 C -1.992188 -28.6875 -2.738281 -27.003906 -5.28125 -25.734375 C -7.800781 -24.460938 -9.585938 -24.875 -10.640625 -26.96875 Z M -10.640625 -26.96875 "/></g></g></g><g fill="#ffffff" fill-opacity="1"><g transform="translate(133.766528, 69.722327)"><g><path d="M 11.96875 -9.46875 C 13 -9.757812 14.164062 -10.363281 15.46875 -11.28125 L 17.03125 -5.6875 C 16.125 -4.957031 15.226562 -4.363281 14.34375 -3.90625 C 13.457031 -3.445312 12.390625 -3.046875 11.140625 -2.703125 C 8.546875 -1.972656 6.503906 -2.082031 5.015625 -3.03125 C 3.523438 -3.976562 2.414062 -5.757812 1.6875 -8.375 L -0.890625 -17.546875 L -3.59375 -16.796875 L -4.46875 -19.9375 L -1.71875 -23.3125 L -1.046875 -28.515625 L 4 -29.9375 L 5.25 -25.484375 L 10.703125 -27.015625 L 12.3125 -21.25 L 6.859375 -19.71875 L 9.296875 -11.0625 C 9.691406 -9.613281 10.582031 -9.082031 11.96875 -9.46875 Z M 11.96875 -9.46875 "/></g></g></g><g fill="#ffffff" fill-opacity="1"><g transform="translate(167.142847, 61.668628)"><g><path d="M 17.328125 -0.71875 L 16.8125 -13.3125 C 16.738281 -14.851562 16.460938 -16.003906 15.984375 -16.765625 C 15.515625 -17.523438 14.789062 -17.890625 13.8125 -17.859375 C 12.46875 -17.796875 11.519531 -17.210938 10.96875 -16.109375 C 10.414062 -15.015625 10.191406 -13.160156 10.296875 -10.546875 L 10.71875 -0.4375 L 2.75 -0.109375 L 1.796875 -23.21875 L 7.828125 -23.46875 L 8.921875 -20.65625 L 9.390625 -20.671875 C 10.023438 -21.796875 10.929688 -22.648438 12.109375 -23.234375 C 13.296875 -23.828125 14.671875 -24.160156 16.234375 -24.234375 C 18.796875 -24.335938 20.816406 -23.675781 22.296875 -22.25 C 23.773438 -20.820312 24.570312 -18.765625 24.6875 -16.078125 L 25.3125 -1.046875 Z M 17.328125 -0.71875 "/></g></g></g><g fill="#ffffff" fill-opacity="1"><g transform="translate(209.942648, 61.884943)"><g><path d="M 13.546875 3.265625 C 9.773438 2.472656 7.054688 0.859375 5.390625 -1.578125 C 3.734375 -4.023438 3.296875 -7.097656 4.078125 -10.796875 C 4.890625 -14.617188 6.472656 -17.34375 8.828125 -18.96875 C 11.191406 -20.601562 14.164062 -21.046875 17.75 -20.296875 C 21.164062 -19.566406 23.609375 -18.117188 25.078125 -15.953125 C 26.554688 -13.785156 26.945312 -11.03125 26.25 -7.6875 L 25.515625 -4.21875 L 11.546875 -7.171875 C 11.328125 -5.898438 11.582031 -4.8125 12.3125 -3.90625 C 13.039062 -3 14.148438 -2.390625 15.640625 -2.078125 C 17.015625 -1.785156 18.304688 -1.644531 19.515625 -1.65625 C 20.722656 -1.675781 22.066406 -1.851562 23.546875 -2.1875 L 22.359375 3.421875 C 20.984375 3.773438 19.617188 3.929688 18.265625 3.890625 C 16.921875 3.859375 15.347656 3.648438 13.546875 3.265625 Z M 16.90625 -14.9375 C 15.988281 -15.125 15.15625 -14.992188 14.40625 -14.546875 C 13.664062 -14.097656 13.113281 -13.265625 12.75 -12.046875 L 19.46875 -10.625 C 19.664062 -11.738281 19.535156 -12.679688 19.078125 -13.453125 C 18.628906 -14.234375 17.90625 -14.726562 16.90625 -14.9375 Z M 16.90625 -14.9375 "/></g></g></g><g fill="#ffffff" fill-opacity="1"><g transform="translate(249.457376, 72.25318)"><g><path d="M 21.671875 2.40625 C 20.609375 4.644531 19.039062 5.972656 16.96875 6.390625 C 14.90625 6.804688 12.445312 6.335938 9.59375 4.984375 C 8.050781 4.253906 6.75 3.535156 5.6875 2.828125 C 4.625 2.128906 3.597656 1.273438 2.609375 0.265625 L 5.34375 -5.5 C 6.226562 -4.476562 7.257812 -3.492188 8.4375 -2.546875 C 9.625 -1.597656 10.738281 -0.878906 11.78125 -0.390625 C 13.34375 0.347656 14.289062 0.363281 14.625 -0.34375 C 14.800781 -0.71875 14.738281 -1.148438 14.4375 -1.640625 C 14.144531 -2.128906 13.144531 -3.289062 11.4375 -5.125 C 9.882812 -6.820312 8.960938 -8.351562 8.671875 -9.71875 C 8.390625 -11.082031 8.613281 -12.535156 9.34375 -14.078125 C 10.257812 -16.015625 11.722656 -17.164062 13.734375 -17.53125 C 15.753906 -17.90625 18.132812 -17.441406 20.875 -16.140625 C 22.257812 -15.484375 23.484375 -14.71875 24.546875 -13.84375 C 25.617188 -12.96875 26.664062 -11.9375 27.6875 -10.75 L 23.53125 -7.015625 C 22.78125 -7.898438 21.941406 -8.742188 21.015625 -9.546875 C 20.085938 -10.359375 19.285156 -10.925781 18.609375 -11.25 C 17.429688 -11.8125 16.707031 -11.804688 16.4375 -11.234375 C 16.269531 -10.878906 16.332031 -10.472656 16.625 -10.015625 C 16.914062 -9.566406 17.863281 -8.492188 19.46875 -6.796875 C 20.644531 -5.492188 21.453125 -4.382812 21.890625 -3.46875 C 22.328125 -2.550781 22.53125 -1.617188 22.5 -0.671875 C 22.46875 0.265625 22.191406 1.289062 21.671875 2.40625 Z M 21.671875 2.40625 "/></g></g></g><g fill="#ffffff" fill-opacity="1"><g transform="translate(282.541328, 89.816551)"><g><path d="M 20.578125 7.15625 C 19.046875 9.101562 17.226562 10.050781 15.125 10 C 13.019531 9.945312 10.726562 8.945312 8.25 7 C 6.90625 5.945312 5.789062 4.957031 4.90625 4.03125 C 4.03125 3.101562 3.222656 2.039062 2.484375 0.84375 L 6.4375 -4.171875 C 7.070312 -2.992188 7.859375 -1.804688 8.796875 -0.609375 C 9.734375 0.578125 10.65625 1.53125 11.5625 2.25 C 12.925781 3.320312 13.851562 3.546875 14.34375 2.921875 C 14.601562 2.609375 14.640625 2.175781 14.453125 1.625 C 14.265625 1.082031 13.539062 -0.273438 12.28125 -2.453125 C 11.15625 -4.453125 10.601562 -6.144531 10.625 -7.53125 C 10.644531 -8.925781 11.1875 -10.296875 12.25 -11.640625 C 13.570312 -13.328125 15.253906 -14.125 17.296875 -14.03125 C 19.347656 -13.945312 21.566406 -12.96875 23.953125 -11.09375 C 25.160156 -10.144531 26.1875 -9.125 27.03125 -8.03125 C 27.875 -6.945312 28.660156 -5.710938 29.390625 -4.328125 L 24.515625 -1.609375 C 23.972656 -2.640625 23.335938 -3.648438 22.609375 -4.640625 C 21.890625 -5.628906 21.234375 -6.359375 20.640625 -6.828125 C 19.617188 -7.628906 18.910156 -7.78125 18.515625 -7.28125 C 18.273438 -6.96875 18.242188 -6.5625 18.421875 -6.0625 C 18.609375 -5.5625 19.296875 -4.304688 20.484375 -2.296875 C 21.335938 -0.765625 21.878906 0.492188 22.109375 1.484375 C 22.335938 2.472656 22.328125 3.425781 22.078125 4.34375 C 21.835938 5.257812 21.335938 6.195312 20.578125 7.15625 Z M 20.578125 7.15625 "/></g></g></g><g fill="#ffffff" fill-opacity="1"><g transform="translate(94.370826, 320.524668)"><g><path d="M 19.703125 8.671875 L 20.609375 2.953125 L 11.75 -0.9375 L 8.109375 3.5625 L 0 0 L 20.96875 -23.5 L 30.8125 -19.171875 L 27.765625 12.21875 Z M 21.75 -3.765625 L 22.546875 -8.765625 C 22.710938 -9.878906 22.945312 -11.3125 23.25 -13.0625 C 23.5625 -14.820312 23.800781 -16.070312 23.96875 -16.8125 C 23.582031 -16.226562 22.898438 -15.28125 21.921875 -13.96875 C 20.953125 -12.65625 18.960938 -10.101562 15.953125 -6.3125 Z M 21.75 -3.765625 "/></g></g></g><g fill="#ffffff" fill-opacity="1"><g transform="translate(143.996517, 339.160193)"><g><path d="M 32.90625 -10.53125 C 31.96875 -3.832031 29.207031 0.382812 24.625 2.125 L 30.703125 11.4375 L 20.75 10.0625 L 16.453125 2.765625 L 16.4375 2.75 L 16.4375 2.71875 L 16.421875 2.6875 C 11.773438 2.050781 8.398438 0.265625 6.296875 -2.671875 C 4.191406 -5.617188 3.484375 -9.582031 4.171875 -14.5625 C 4.847656 -19.476562 6.597656 -23.066406 9.421875 -25.328125 C 12.242188 -27.585938 16 -28.390625 20.6875 -27.734375 C 25.394531 -27.085938 28.78125 -25.304688 30.84375 -22.390625 C 32.90625 -19.472656 33.59375 -15.519531 32.90625 -10.53125 Z M 12.578125 -13.359375 C 11.785156 -7.648438 13.378906 -4.519531 17.359375 -3.96875 C 19.367188 -3.6875 20.957031 -4.171875 22.125 -5.421875 C 23.289062 -6.679688 24.082031 -8.773438 24.5 -11.703125 C 24.90625 -14.648438 24.707031 -16.894531 23.90625 -18.4375 C 23.113281 -19.988281 21.734375 -20.898438 19.765625 -21.171875 C 15.765625 -21.734375 13.367188 -19.128906 12.578125 -13.359375 Z M 12.578125 -13.359375 "/></g></g></g><g fill="#ffffff" fill-opacity="1"><g transform="translate(199.816131, 343.568768)"><g><path d="M 24.0625 -33.609375 L 26.609375 -15.8125 C 27.160156 -11.945312 26.492188 -8.796875 24.609375 -6.359375 C 22.734375 -3.921875 19.738281 -2.410156 15.625 -1.828125 C 11.59375 -1.242188 8.347656 -1.828125 5.890625 -3.578125 C 3.429688 -5.335938 1.925781 -8.144531 1.375 -12 L -1.203125 -29.984375 L 6.8125 -31.125 L 9.296875 -13.78125 C 9.597656 -11.6875 10.207031 -10.226562 11.125 -9.40625 C 12.039062 -8.582031 13.265625 -8.28125 14.796875 -8.5 C 16.421875 -8.726562 17.53125 -9.363281 18.125 -10.40625 C 18.726562 -11.445312 18.878906 -13.035156 18.578125 -15.171875 L 16.09375 -32.46875 Z M 24.0625 -33.609375 "/></g></g></g><g fill="#ffffff" fill-opacity="1"><g transform="translate(252.921904, 332.754004)"><g><path d="M 19.703125 -8.671875 L 16.109375 -13.203125 L 7.25 -9.3125 L 8.109375 -3.5625 L 0 0 L -3.15625 -31.34375 L 6.6875 -35.671875 L 27.765625 -12.21875 Z M 11.90625 -18.578125 L 8.765625 -22.546875 C 8.054688 -23.410156 7.15625 -24.546875 6.0625 -25.953125 C 4.976562 -27.367188 4.21875 -28.394531 3.78125 -29.03125 C 3.957031 -28.34375 4.195312 -27.195312 4.5 -25.59375 C 4.8125 -23.988281 5.347656 -20.800781 6.109375 -16.03125 Z M 11.90625 -18.578125 "/></g></g></g></svg>