<svg width="148" height="33" xmlns="http://www.w3.org/2000/svg"><g fill="#fff" fill-rule="evenodd"><path d="M6.96788321 11.8576271c0 1.0627119.81021898 1.9016949 1.83649635 1.9016949 1.02627737 0 1.83649634-.8949152 1.83649634-1.9016949V7.27118644c0-1.06271186-.81021897-1.90169491-1.83649634-1.90169491s-1.83649635.83898305-1.83649635 1.90169491v4.58644066z"/><path d="M8.80437956 18.6813559c4.86131384 0 8.80437954-4.0830508 8.80437954-9.11694912 0-5.03389831-3.9430657-9.11694915-8.80437954-9.11694915C3.94306569.44745763 0 4.53050847 0 9.56440678c0 5.03389832 3.94306569 9.11694912 8.80437956 9.11694912m0-15.21355929c3.24087594 0 5.88759124 2.74067797 5.88759124 6.09661017 0 3.35593222-2.6467153 6.09661012-5.88759124 6.09661012-3.24087591 0-5.88759124-2.7406779-5.88759124-6.09661012 0-3.3559322 2.64671533-6.09661017 5.88759124-6.09661017" fill-rule="nonzero"/><path d="M76.2686131 10.0677966c.1080292-.67118643.4321168-1.28644067.9722628-1.73389829.540146-.44745763 1.1343066-.72711865 1.8364964-.72711865.3240876 0 .6481751.0559322.9182481.16779661.270073.11186441.4861314.27966102.7021898.50338983.1620438.22372882.3240876.50338983.3781022.78305085.0540146.27966102.0540146.61525424 0 .95084745-.0540146.3355932-.1620438.6711864-.3240876.9508475-.1620438.279661-.3781022.559322-.6481752.7830508-.270073.2237288-.540146.3915254-.8642335.559322-.3240876.1118645-.6481752.1677967-.9722628.1677967-.3240876 0-.6481752-.0559322-.9182482-.1677967-.270073-.1118644-.4861314-.3355932-.6481752-.559322-.1620438-.2237288-.3240876-.5033898-.3781022-.7830508-.1080292-.2796611-.1080292-.5593221-.0540146-.8949153M19.2832117 27.9101695l3.1328467-18.28983052h5.9416058l2.2686132 12.24915252L37.270073 9.62033898h5.6175182L39.7547445 27.9101695h-4.3211679l2.1065694-12.361017-6.2656934 12.361017h-3.3489052l-2.1605839-12.361017-2.1065693 12.361017zM43.1036496 22.3169492l1.4043796-8.1661017h4.2131387l-1.1883212 7.0474576c-.1620438 1.0067796-.1620438 1.7898305.1080292 2.4050847.2160584.6152543.7562044.9508475 1.6744526.9508475.8642335 0 1.5664233-.3355932 2.1065693-.9508475.540146-.6152542.8642336-1.4542373 1.080292-2.5169491l1.1883211-6.879661h4.2131387l-2.3226277 13.759322h-4.2131387l.3240876-1.9576271c-.4861314.7271186-1.1343066 1.2864407-1.9445255 1.6779661-.810219.3915254-1.7284672.6152542-2.8087592.6152542-.9182481 0-1.6744525-.1677966-2.2145985-.4474576-.540146-.279661-.9722628-.6711865-1.2423358-1.1186441-.3240876-.559322-.4861314-1.118644-.540146-1.8457627-.1080292-.7271186 0-1.5661017.1620438-2.5728813M57.9036496 27.9101695l3.1328468-18.28983052h4.2131386L62.1167883 27.9101695zM66.7620438 14.1508475l.810219-4.58644072h4.2131387l-.810219 4.58644072H74l-.540146 3.2440678h-3.0248175l-.810219 4.8661016c-.1080292.5033899-.1080292.8949153-.0540146 1.2305085.0540146.279661.1080292.5593221.270073.7271187.1620438.1677966.3240876.279661.540146.3355932.2160584.0559322.4861314.0559322.810219.0559322h.7021898c.2700729 0 .5401459-.0559322.7562043-.0559322l-.5941605 3.3559322c-.3240876.0559322-.7021898.1118644-1.1883212.1677966-.4861314.0559322-1.0262774.0559322-1.6744526.0559322-.4861314 0-1.0262773-.0559322-1.5664233-.1118644s-1.0262774-.279661-1.4043796-.559322c-.4321168-.3355933-.7021898-.7830509-.9182482-1.4542373-.2160584-.6711865-.2160584-1.5661017 0-2.6847458l.9722628-5.8728813.4861314-3.3zM73.6218978 27.9101695l2.3226277-13.759322h4.2131387l-2.3766423 13.759322z"/><path d="M94.849635 32.4966102l3.1328468-18.3457627h4.2131382l-.324087 1.9576271c.432117-.6152543 1.080292-1.1745763 1.890511-1.6220339.810219-.4474576 1.728467-.6711865 2.808759-.6711865.864233 0 1.674452.1677966 2.376642.5593221.70219.3915254 1.296351.8949152 1.728467 1.5101695.486132.6152542.756205 1.398305.972263 2.2932203.162044.8949153.162044 1.8457627 0 2.8525424-.162044 1.0067796-.486131 2.0135593-.972263 2.8525423-.486131.8949153-1.026277 1.6220339-1.728467 2.2932204-.648175.6152542-1.458394 1.1745763-2.268613 1.5101695-.810219.3915254-1.674452.559322-2.538686.559322-1.026277 0-1.890511-.2237288-2.538686-.6711864-.648175-.4474577-1.134307-1.0067797-1.350365-1.6220339l-1.1343067 6.5440678H94.849635zm6.157664-11.4661017c-.108029.5033898-.108029.9508474 0 1.3423729.108029.4474576.216059.7830508.486132 1.118644.216058.3355932.486131.5593221.864233.7271187.378102.1677966.756205.279661 1.242336.279661.486131 0 .918248-.1118644 1.350365-.279661.432117-.1677966.810219-.4474577 1.134307-.7271187.324087-.279661.59416-.6711864.810219-1.118644.216058-.4474577.378102-.8949153.486131-1.3423729.108029-.4474577.054014-.8949153 0-1.3423729-.108029-.4474576-.216058-.7830509-.486131-1.1186441-.216059-.3355932-.486132-.559322-.864234-.7271186-.378102-.1677966-.756204-.279661-1.242336-.279661-.486131 0-.918248.1118644-1.350365.279661-.432117.1677966-.810219.4474576-1.134306.7271186-.324088.3355932-.594161.6711865-.864234 1.1186441-.216058.4474576-.378102.8949152-.432117 1.3423729zM112.99854 21.0305085c.162044-1.0067797.486132-1.9016949.972263-2.7966102.486131-.8949152 1.080292-1.6220339 1.836496-2.2932203.756205-.6711865 1.620438-1.1745763 2.592701-1.5661017.972263-.3915255 2.052555-.6152543 3.186861-.6152543 1.188321 0 2.160584.1677966 3.024818.6152543.864233.3915254 1.512409.8949152 2.052555 1.5661017.540146.6711864.864233 1.3983051 1.080292 2.2932203.162043.8949153.162043 1.7898305 0 2.7966102-.162044 1.0067796-.486132 1.9016949-.972263 2.7966101-.486132.8949153-1.080292 1.6220339-1.836497 2.2932204-.756204.6711864-1.620438 1.1745763-2.5927 1.5661017-.972263.3915254-2.052555.559322-3.186862.559322-1.134306 0-2.160584-.2237288-2.970803-.559322-.810219-.3915254-1.512408-.8949153-2.052554-1.5661017-.540146-.6711865-.864234-1.3983051-1.080292-2.2932204-.216059-.838983-.216059-1.7898305-.054015-2.7966101m4.213139 0c-.108029.5033898-.108029.9508474 0 1.3983051.054014.4474576.216058.7830508.432117 1.118644.216058.3355932.486131.5593221.864233.7830509.378102.1677966.756205.279661 1.242336.279661.486131 0 .918248-.1118644 1.350365-.279661.432117-.1677966.810219-.4474577 1.134306-.7830509.324088-.3355932.594161-.6711864.864234-1.118644.216058-.3915255.378102-.8949153.486131-1.3983051.10803-.4474577.10803-.9508475 0-1.3423729-.108029-.4474576-.216058-.7830509-.432116-1.1186441-.216059-.3355932-.486132-.559322-.864234-.7830508-.378102-.1677966-.810219-.279661-1.29635-.279661-.486132 0-.918248.1118644-1.350365.279661-.432117.1677966-.810219.4474576-1.134307.7830508-.324087.3355932-.59416.6711865-.810219 1.1186441-.270073.3915254-.432117.8949152-.486131 1.3423729" fill-rule="nonzero"/><path d="M140.383942 14.1508475l.756204-4.58644072h4.213139l-.756205 4.58644072h3.024818l-.540146 3.2440678h-3.024818l-.810219 4.8661016c-.108029.5033899-.108029.8949153-.054014 1.2305085.054014.279661.108029.5593221.270073.7271187.162044.1677966.324087.279661.540146.3355932.216058.0559322.432116.0559322.756204.0559322h.70219c.270073 0 .540146-.0559322.756204-.0559322l-.59416 3.3559322c-.324088.0559322-.70219.1118644-1.188322.1677966-.486131.0559322-1.026277.0559322-1.674452.0559322-.486131 0-1.026277-.0559322-1.566423-.1118644-.540146-.0559322-1.026278-.279661-1.40438-.559322-.432117-.3355933-.70219-.7830509-.918248-1.4542373-.216059-.6711865-.216059-1.5661017 0-2.6847458l.972263-5.8728813.540146-3.3zM95.659854 12.640678c-.1620438-.7271187-.4321168-1.3423729-.9182482-1.9016949-.4321167-.5593221-1.0802919-1.00677971-1.7824817-1.34237293-.7562044-.33559322-1.6744526-.50338983-2.7007299-.50338983-.810219 0-1.6744526.11186441-2.4846716.33559322-.810219.22372881-1.5664233.55932203-2.2145985 1.00677964-.6481752.4474576-1.2423358 1.0067797-1.7284672 1.7338983-.4861314.6711865-.8102189 1.5101695-.9722627 2.461017-.1620438.8949152-.1080292 1.7338983.1080292 2.3491525.2160584.6152543.5941605 1.1745763 1.0802919 1.6220339.4861314.4474576 1.080292.8389831 1.7284672 1.1186441.6481752.279661 1.3503649.6152542 2.1065693.8949152.3781022.1677966.7021898.2796611.9722628.4474577.3240876.1677966.540146.279661.7562044.5033898.1620438.1677966.3240876.3915254.4321168.6152542.1080292.2237288.1080292.5033899.0540146.8389831-.1080292.559322-.3781022 1.0067796-.810219 1.3983051-.4321168.3355932-.9722628.5033898-1.620438.5033898-.7562043 0-1.2963503-.2237288-1.7284671-.7271186-.3781022-.5033899-.540146-1.2305085-.3781022-2.1254238h-4.4832117c-.1620438 1.0627119-.1620438 2.0135593.0540146 2.8525424.2160584.838983.5941606 1.5661017 1.080292 2.1254237.540146.5593221 1.1883211 1.0067797 1.9445255 1.2864407.810219.279661 1.6744526.4474576 2.70073.4474576.9722627 0 1.8905109-.1118644 2.7547445-.3915254.8642336-.279661 1.6744525-.6711864 2.3226277-1.1745763.7021898-.5033898 1.2423358-1.1745762 1.7284672-1.9016949.4861314-.7271186.7562043-1.5661017.9182481-2.5169491.1620438-.9508475.1080292-1.7898305-.1620438-2.461017-.2700729-.6711864-.6481751-1.2305085-1.1883211-1.6779661-.540146-.4474576-1.1343066-.838983-1.8364964-1.1745763-.7021898-.279661-1.4043795-.6152542-2.1065693-.8949152-.7021898-.279661-1.2963504-.6152542-1.620438-.9508475-.3240876-.3355932-.4321168-.7271186-.3781022-1.2305084.1080292-.5033899.3240876-.8949153.7562044-1.1745763.4321168-.279661.9182482-.4474576 1.4043796-.4474576.6481752 0 1.1343066.2237288 1.3503649.6152542.270073.3915254.3240876 1.0067797.2160584 1.7338983h4.5372263c.2160584-.838983.2160584-1.5661017.1080292-2.2932203M138.817518 13.9271186c-.972263 0-1.890511.2237289-2.70073.7271187s-1.404379 1.0627119-1.836496 1.7338983l.378102-2.2372881h-4.213139l-2.322627 13.759322h4.213138l.918249-5.3694915c.270073-1.6779661.864233-2.9084746 1.674452-3.5796611.810219-.7271186 1.836497-1.0627118 3.024818-1.0627118.216058 0 .378102 0 .486131.0559322l.70219-4.0271187h-.324088"/></g></svg>
